<?xml version="1.0" encoding="UTF-8"?>
<svg width="3000px" height="771px" viewBox="0 0 3000 771" xmlns="http://www.w3.org/2000/svg" xmlns:xlink="http://www.w3.org/1999/xlink" version="1.1">
 <!-- Generated by Pixelmator Pro 2.1.5 -->
 <path id="Path" d="M2999.5 282.28 L2999.5 41.34 2342.78 41.34 2342.78 163.07 C2342.32 162.3 2341.93 161.47 2341.46 160.71 Q2304.71 101.26 2237.06 71.3 2169.41 41.34 2077.57 41.3 L1642.57 41.3 1642.57 274.79 Q1629.25 219.79 1601.86 175.39 1548.49 89.08 1450.27 45.56 1352.05 2.04 1218.66 2.05 1074.07 2.05 973 47.66 871.93 93.27 819.33 180.31 791.14 226.91 778.1 283.21 L778.1 41.34 499.76 41.34 C508.861 84.973 513.439 129.428 513.42 174 513.42 227.511 506.81 280.815 493.739 332.703 L314.74 332.7 C323.979 291.039 328.64 248.493 328.64 205.82 328.673 150.133 320.757 94.754 305.132 41.333 L0.5 41.36 0.5 729.13 278.85 729.13 C258.775 632.814 260.827 533.198 284.85 437.79 L463.91 437.79 C442.563 534.166 445.865 634.369 473.51 729.13 L778.1 729.13 778.1 504.13 Q802.35 616.2 878.28 677.88 989.87 768.4 1208.83 768.41 1436.22 768.41 1545.7 675.77 1618.16 614.46 1642.56 508.17 L1642.56 729.17 1920.09 729.17 1920.09 572.61 C1961.96 586.75 2034.65 600.36 2093.31 600.36 2197.7 600.36 2252.53 572.62 2302.79 530.09 2318.62 516.69 2331.94 498.5 2342.79 477.09 L2342.79 729.09 2999.5 729.09 2999.5 488.19 C2801.07 447.8 2758.26 520 2595.26 520 L2595.26 437.79 2774.26 437.79 2774.26 332.68 2595.26 332.68 2595.26 250.43 C2758.26 250.43 2801.07 322.66 2999.5 282.28 Z M1210.94 569.1 C1134.38 569.1 1106.62 486.78 1106.62 385.23 1106.62 283.68 1134.38 201.36 1210.94 201.36 1287.5 201.36 1315.26 283.68 1315.26 385.23 1315.26 486.78 1287.5 569.1 1210.94 569.1 Z M1920.09 409.54 L1920.09 200.9 C2021.64 200.9 2103.96 201.36 2103.96 305.22 2104 409.54 2021.64 409.54 1920.09 409.54 Z" fill="#0055b8" fill-opacity="1" stroke="none"/>
</svg>
